<?xml version="1.0" encoding="UTF-8"?>
<svg id="_图层_1" data-name="图层 1" xmlns="http://www.w3.org/2000/svg" xmlns:xlink="http://www.w3.org/1999/xlink" viewBox="0 0 625.28 114.45">
  <defs>
    <style>
      .cls-1 {
        clip-rule: evenodd;
      }

      .cls-1, .cls-2, .cls-3 {
        fill: #fff;
      }

      .cls-2 {
        fill-rule: evenodd;
      }

      .cls-4 {
        clip-path: url(#clippath-1);
      }

      .cls-5 {
        clip-path: url(#clippath-3);
      }

      .cls-6 {
        clip-path: url(#clippath-4);
      }

      .cls-7 {
        clip-path: url(#clippath-2);
      }

      .cls-8 {
        clip-path: url(#clippath-5);
      }

      .cls-9 {
        clip-path: url(#clippath);
      }
    </style>
    <clipPath id="clippath">
      <path class="cls-1" d="M193.77,45.07c-48.09-12.37-67.7-35.42-113.15-35.42C44.82,9.64,5.95,26.66,5.95,26.66v7.17s48.24-5.98,100.03,18.54c11.12,5.27,23.25,8.96,35.65,11.49,5.13-1.7,10.22-3.63,15.2-5.82,12.85-5.65,25.2-9.87,36.94-12.97"/>
    </clipPath>
    <clipPath id="clippath-1">
      <rect class="cls-3" x="5.95" y="9.64" width="187.82" height="54.22"/>
    </clipPath>
    <clipPath id="clippath-2">
      <path class="cls-1" d="M311.88,49.31s-46.67-22.15-116.68-3.41c17.66,4.6,37.73,8.15,65.74,8.15v9.81c14.32-2.92,30.97-4.73,50.94-4.73v-9.81Z"/>
    </clipPath>
    <clipPath id="clippath-3">
      <rect class="cls-3" x="-708.54" y="-50.38" width="3717.69" height="9762.8"/>
    </clipPath>
    <clipPath id="clippath-4">
      <path class="cls-1" d="M141.82,65.27c-41.71,13.92-85.52,12.88-85.52,12.88v7.26s39.19,22.98,75.28,22.98c50.52,0,69.38-32.12,129.96-44.53-5.75,1.15-65.4,12.51-119.72,1.41"/>
    </clipPath>
    <clipPath id="clippath-5">
      <rect class="cls-3" x="-708.54" y="-50.38" width="3717.69" height="9762.8"/>
    </clipPath>
  </defs>
  <path class="cls-3" d="M498.27,50.05v-6.17h1.58v5.78c0,2.63-.2,4.9-.59,6.83h8.77v1.31h-8.47c1.31,3.77,4,6.7,8.08,8.8v1.31c-4.66-2.28-7.72-5.21-9.16-8.8-1.25,3.68-5.42,6.61-12.51,8.8v-1.31c6.43-2.19,10.21-5.12,11.33-8.8h-11.82v-1.31h12.21c.39-1.49.59-3.63.59-6.43ZM507.33,40.73v5.38h-1.48v-3.94h-18.32v3.94h-1.48v-5.38h9.85v-3.02h1.58v3.02h9.85ZM494.92,54.12c-2.3-1.4-4.6-2.32-6.89-2.76v-1.31c2.69.44,4.99,1.18,6.89,2.23v1.84ZM496.5,49.13c-2.1-1.4-4.23-2.28-6.4-2.63v-1.31c2.23.18,4.37.83,6.4,1.97v1.97Z"/>
  <path class="cls-3" d="M544.14,58.59c-1.51.96-3.35,1.62-5.52,1.97v-1.84c1.84-.09,3.68-.61,5.52-1.58v1.44ZM546.61,51.89v11.56c.06,2.71-.95,4.03-3.05,3.94h-1.67v-1.44h1.58c1.18.09,1.74-.66,1.67-2.23v-10.51h-2.86c-1.84.18-2.69-.96-2.56-3.41v-7.22h1.38v7.09c-.07,1.58.49,2.32,1.67,2.23h1.58v-11.03h-5.22v-1.44h6.6v12.47h.89ZM547.2,47.69c3.22-2.89,5.28-6.17,6.2-9.85h1.87c1.05,3.68,3.15,6.96,6.3,9.85v1.31c-3.28-2.19-5.68-5.12-7.19-8.8-1.45,3.5-3.84,6.43-7.19,8.8v-1.31ZM560.2,52.15c-.59,4.64-1.61,8.89-3.05,12.74h4.14v1.44h-13.59v-1.44h8.27c1.31-3.85,2.23-8.1,2.76-12.74h1.48ZM548.58,52.55h1.18c.72,3.33,1.21,6.39,1.48,9.19h-1.48c-.2-3.24-.59-6.3-1.18-9.19ZM549.56,49.79v-1.44h9.65v1.44h-9.65ZM553.11,52.55h1.18c.72,2.89,1.18,5.95,1.38,9.19h-1.48c-.07-2.45-.43-5.52-1.08-9.19Z"/>
  <path class="cls-3" d="M594.89,47.43v-1.31h17.24v1.31h-9.95c-1.58,2.28-3.32,4.2-5.22,5.78,5.71,0,9.88-.17,12.51-.53-.2-.44-.53-1.09-.98-1.97-.26-.53-.46-.92-.59-1.18h1.38c1.25,1.93,2.23,3.98,2.95,6.17h-1.67c-.07-.17-.16-.48-.3-.92-.13-.35-.23-.61-.3-.79-1.64.18-3.55.35-5.71.53v4.07h8.47v1.44h-8.47v5.25h10.64v1.44h-22.85v-1.44h10.64v-5.25h-8.47v-1.44h8.47v-3.94h-7.58v-1.44c2.23-1.75,3.94-3.68,5.12-5.78h-5.32ZM614.19,40.73v4.86h-1.48v-3.55h-18.42v3.55h-1.58v-4.86h9.95v-2.89h1.58v2.89h9.95Z"/>
  <g>
    <path class="cls-3" d="M490.61,89.38h-3.67v6.38h-1.47v-15.51h5.14c2.52,0,4.27,1.76,4.27,4.55s-1.75,4.57-4.27,4.57ZM490.47,81.74h-3.53v6.16h3.53c1.73,0,2.93-1.05,2.93-3.09s-1.2-3.07-2.93-3.07Z"/>
    <path class="cls-3" d="M503.09,95.89c-2.79,0-4.81-2.16-4.81-5.25v-10.39h1.47v10.26c0,2.35,1.32,3.9,3.34,3.9s3.36-1.55,3.36-3.9v-10.26h1.47v10.39c0,3.09-2.04,5.25-4.83,5.25Z"/>
    <path class="cls-3" d="M513.49,95.89c-1.32,0-2.31-.44-3.16-1.39l.99-1.11c.5.57,1.03,1.02,2.17,1.02,1.8,0,2.83-1.28,2.83-3.57v-10.58h1.47v10.8c0,2.98-1.79,4.83-4.31,4.83Z"/>
    <path class="cls-3" d="M522.38,95.76v-15.51h1.47v15.51h-1.47Z"/>
    <path class="cls-3" d="M536.69,95.76l-1.11-3.51h-6.04l-1.11,3.51h-1.57l5.08-15.51h1.24l5.06,15.51h-1.57ZM532.59,82.63l-2.6,8.19h5.16l-2.56-8.19Z"/>
    <path class="cls-3" d="M550.08,95.76l-7.33-12.44v12.44h-1.47v-15.51h1.4l7.33,12.39v-12.39h1.47v15.51h-1.4Z"/>
    <path class="cls-3" d="M564.25,94.11c-.97,1.18-2.27,1.79-3.69,1.79s-2.6-.57-3.53-1.61c-1.3-1.46-1.3-2.98-1.3-6.27s0-4.81,1.3-6.27c.93-1.05,2.15-1.61,3.53-1.61,2.64,0,4.42,1.92,4.83,4.64h-1.47c-.39-1.96-1.63-3.16-3.36-3.16-.91,0-1.79.41-2.39,1.11-.87,1-.97,2.05-.97,5.29s.1,4.31.97,5.31c.6.7,1.47,1.09,2.39,1.09,1.01,0,1.98-.46,2.62-1.33.56-.76.78-1.61.78-2.81v-1.18h-3.4v-1.46h4.87v2.46c0,1.79-.33,2.98-1.18,4.01Z"/>
    <path class="cls-3" d="M580.86,95.76v-15.51h1.47v14.02h7.06v1.48h-8.54Z"/>
    <path class="cls-3" d="M600.81,95.76l-1.11-3.51h-6.04l-1.11,3.51h-1.57l5.08-15.51h1.24l5.06,15.51h-1.57ZM596.72,82.63l-2.6,8.19h5.16l-2.56-8.19Z"/>
    <path class="cls-3" d="M610.77,95.76h-5.37v-15.51h5.2c2.41,0,4.08,1.55,4.08,4.14,0,1.63-.87,2.92-2.04,3.4,1.32.54,2.25,1.83,2.25,3.68,0,2.81-1.67,4.29-4.11,4.29ZM610.48,81.74h-3.61v5.38h3.61c1.53,0,2.72-.85,2.72-2.7s-1.18-2.68-2.72-2.68ZM610.63,88.6h-3.76v5.68h3.76c1.71,0,2.77-1.11,2.77-2.85s-1.07-2.83-2.77-2.83Z"/>
  </g>
  <g>
    <path class="cls-3" d="M418.69,60.17c-.04-1.32.19-2.67.65-3.96.09-.27.2-.55.4-.75,1.37-1.32,2.83,3.62,3.41,4.26.98,1.07,2.59,1.76,3.76,2.62,1.48,1.09,5.49,3.35,5.23,5.51-.08.68-.43,1.3-.8,1.89-.67,1.08-3.5,5.73-2.46,6.96.21.25.57.31.88.23s.58-.27.83-.47c2.74-2.11,4.53-5.01,6.28-7.94,1.03-1.72,2.06-3.45,3.1-5.17.33-.55.66-1.09,1.23-1.42.13-.07.27-.13.41-.09.18.06.25.27.3.46.19.75.38,1.51.39,2.28.03,1.47-.94,2.53-1.47,3.83-.64,1.55-1.04,3.19-1.61,4.77-2.15,5.98-5.63,11.73-9.57,16.7-.79,1-1.73,1.26-3,1.17-.66-.05-1.33-.14-1.92-.45-1.3-.66-3.32-3.05-3.52-4.51-.05-.39-.33-1.94-.28-2.33.22-1.74.64-1.75,1.26-2.54.75-.95,1.29-2.11,1.62-3.27.29-1.02.43-2.07.56-3.12.35-2.8.71-5.65-1.61-7.7-.79-.69-1.68-1.29-2.33-2.11-1.17-1.47-1.71-3.16-1.77-4.89Z"/>
    <path class="cls-3" d="M426.58,40.03c.16-.01.34-.01.55,0,.39.02,1.5.16,1.85.32.85.39,1.79.39,2.7.39,1.53,0,3.06,0,4.59-.01,1.82,0,4.06-.1,5.47,1.22s1.73,3.44.48,4.98c-1.15,1.41-3.09,2.45-4.93,2.18-3.5-.51-6.13-2.21-9.76-.99-.23.08-.5.24-.57.45-.06.18-.28.26-.46.17-.14-.07-.27-.18-.37-.31-.83-1.2,1.69-2.01,1.9-3.26.18-1.09-4.16-4.9-1.47-5.12Z"/>
    <path class="cls-3" d="M458.07,72.58c.16-.31.05-.7-.26-.86-.02-.01-.04-.02-.06-.02-.54-.16-1.26-.04-1.81.03-1.26.17-2.48.61-3.65,1.12-1.48.65-2.92,1.39-4.46,1.92-1.12.38-2.31.17-3.47.34-.79.11-1.54-.37-1.79-1.12-.1-.3-.17-.6-.23-.9-.11-.52-.21-1.19.26-1.54.39-.29,5.48-1.2,6.46-1.38,1.96-.36,2.45-2.21,3.31-3.76.09-.17,3.96-6.02,4.7-8.45.54-1.76-.04-2.08-1.63-2.76-2.05-.88-4.78-1.86-6.02-3.84-.15-.24-.28-.51-.23-.79.06-.33.36-.57.69-.66s.67-.05,1-.02c1.8.17,3.62.18,5.43.02,1.56-.14,3.3-.76,4.85-.29.83.25,2.55.9,3.17,1.49,2.88,2.75.03,4.3-1.69,6.58-1.09,1.45-1.94,3.06-2.79,4.66-.75,1.41-4.13,6.4-2.49,6.4,1.08,0,2.16-.29,3.14-.73.87-.39,1.55-1.28,2.56-1.3.38,0,.75.13,1.11.24,1.48.47,3.79.15,4.23,2.04.22.95-.69,1.48-1.58,1.98s-4.15,1.63-5.86,2.24c-.48.17-1.61.66-2.13.55-.28-.06-.54-.21-.69-.45-.17-.26-.17-.51-.06-.72Z"/>
  </g>
  <g>
    <path class="cls-3" d="M397.22,56.41c-1.98-2.99-4.76-7.14-8.79-7.11-.23,0-.46.02-.7.03-.63.04-2.94.71-2.86-.34.13-1.81,0-3.73.65-5.46.83-2.18,3.31-2.74,5.22-3.66.25-.12.51-.2.78-.24.81-.1,1.61-.24,2.36-.58.24-.11.86-.34.99-.57.01-.03,1.36-3.16-1.74-3.9-1-.24-1.39-.97-2.58-.81-.93.12-2.21.13-3.06.53-1.11.52-.71-.69-.65-1.3.13-1.33.04-2.64.29-3.98.09-.46.19-.93.12-1.39-.03-.23-.11-.44-.12-.67-.01-.2.03-.4.05-.6.22-1.78-.78-3.71-1.52-5.27-.14-.28-.28-.57-.5-.79-.23-.23-.47-.34-.72-.36-.64-.05-1.3.5-1.7,1.02-1.04,1.36-1.87,3.02-2.56,4.59-.69,1.56-1.27,3.39-.82,5.1.32,1.21.6-.91.51-.8,1.04-1.48,1.05-3.5,2.3-4.83.07-.07.16-.15.26-.14.1.01.17.12.18.22.01.1-.03.2-.06.3-.37,1-.53,1.84-.71,2.88-.2,1.16-.36,2.32-.49,3.49-.12,1.04-.21,2.09-.27,3.14-.05.76.04,1.62-.66,2.12-3.25,2.28-7.23,3.7-10.7,5.64-2.58,1.44-4.99,3.22-7.57,4.63-.28.15-1.66.5-1.45.91.31.59,3.36.04,4,.13,1.56.2,3.07.7,4.65.72.58,0,1.03.11,1.58.24.35.08.83.06,1.17.17,1.02.34-1.15,2.8-1.41,3.18-.14.2-.43.76-.51.91-1.6,2.64-2.6,5.68-3.37,8.66-1.29,5-2.08,10.11-2.13,15.29-.02,2,.06,4.02.12,6.03.06,2.22-.54,4.63.24,6.77.03.07.64,1.76.76,1.88.88.91,2.08,1.88,3.34,1.37.12,0,.23-.07.33-.15.03-.02.06-.04.1-.07.3-.2.65-.36.87-.62.1-.12.17-.26.24-.4.07-.12.12-.25.16-.38.02-.05.04-.1.06-.15.04-.1.11-.2.11-.3,0-.45,0-.89-.02-1.34-.02-.39-.11-.79-.12-1.18.01-.52.07-1.25.1-1.86.05.1.08.15.11.19.13.24.26.49.4.73.02.04.05.08.06.13.1.46.41.8.66,1.18.2.3.48.55.73.82.26.29.46.33.82.12.04-.18,0-.34-.14-.47-.11,0-.21,0-.32,0-.07,0-.16-.02-.2-.07-.17-.21-.39-.37-.48-.65-.08-.25-.23-.47-.41-.66-.04-.05-.1-.11-.1-.16-.02-.37-.3-.62-.45-.92-.17-.33-.41-.62-.62-.92.17-.18.16-.36.07-.56-.05-.12-.08-.25-.11-.38-.02-.06-.02-.13-.04-.2-.08-.23-.09-.46-.1-.69,0-.16,0-.31.02-.47,0,0,.01,0,.01,0,.26.58.49,1.16.74,1.73,0,.04.01.08,0,.11-.04.15.04.25.12.37.12.19.33.35.34.59.01.27.26.42.3.67,0,.02.02.03.04.04.07.04.13.08.19.13.17.26.35.52.55.76.07.16.2.27.33.38.65.69,1.41,1.25,2.13,1.87.18.16.35.32.53.48,0,0,0,0,0,0,.27.26.53.54.77.84.2.27.38.55.59.81,0,0,.02.02.02.03,0,.02.01.04.02.06.03.19.14.26.31.34,0,0,.02,0,.03.01.3.3.63.58.99.8.16.1.33.19.46.34.37.42.21,1.12.24,1.63.02.32.04.64.05.97-.04.17-.05.35-.07.52-.03.27-.04.54-.02.81.03.26.03.52.03.78-.04.55-.09,1.08-.16,1.6-.01.09-.03.18-.04.27-.03.16-.06.32-.08.48,0,.07.04.17.09.22.08.06.17,0,.22-.08.05-.08.1-.16.12-.25.05-.23.05-.46.12-.68.12-.39.2-.78.18-1.19,0-.07.07-.15.11-.22.26.11.29.27.25.49-.05.3-.06.61-.1.92-.05.33-.1.66-.17.99-.05.23-.12.46-.19.69-.06.18.01.27.17.36.08-.14.13-.29.22-.39.11-.12.27-.18.44-.11.03.1.06.18.1.29.27-.1.52-.22.78-.3.2-.06.26-.18.29-.37.02-.13.04-.26.06-.39.19-.67.35-1.38.44-2.08.02-.04.03-.08.05-.13.06-.13.02-.26,0-.39,0-.09.01-.19.01-.28.05-.18.09-.36.03-.55,0-.03,0-.07-.01-.08,0,0,0-.01-.01-.02,0-.42.03-.96.1-1.32.08-.14.18-.26.27-.4.12.06.24.12.37.18,0,.01.02.02.02.03.02.05.15.1.19.08,0,0,.01,0,.02,0,1.8.86,3.69,1.54,5.68,1.79.78.1,1.57.14,2.36.13.67-.02,1.37-.22,2.03-.08.29.06.5.26.81.11.3-.15.79-.6.92-.88.39-.88,1.14-2.94,1.24-3.13.28-.55.37-1.07.01-1.78-.26-.51-.85-6.35-.85-7.23,0-.58,0-1.16,0-1.73,0-.46,0-.93,0-1.39,0-4.21.39-8.51.27-12.69-.12-4.16.32-8.34,1.46-12.35.04-.15.09-.3.07-.45-.02-.17-.12-.33-.21-.47ZM375.24,88.14s0-.01-.01-.02c-.08-.1-.15-.19-.23-.29-.05-.06-.1-.12-.15-.18-.04-.05-.09-.11-.13-.16-.24-.43-.85-1.55-1.28-2.33-.07-.18-.14-.36-.22-.53-.05-.1-.12-.2-.21-.27-.02-.02-.05-.04-.06-.06-.02-.06-.05-.15-.07-.26.01-.15-.01-.3-.09-.43-.01-.07-.03-.14-.04-.21.08-.3-.07-.57-.12-.85-.03-.17-.01-.32.08-.45.02,0,.04,0,.04,0,.04.03.09.06.14.09.12.1.26.19.39.28.15.12.29.26.39.43.11.18.26.32.48.4.01,0,.06.02.12.03.1.05.19.12.28.19.16.13,1.65.49,1.84.41.09-.04.17-.05.25-.05.05.01.09.02.11.02.02,0,.09,0,.17,0,.03,0,.06,0,.09,0,.36-.02.96-.06,1-.05.02,0,.05.01.08.01.12.04.23.03.32-.07.06-.02.11-.04.17-.06.13,0,.23-.08.34-.16,0,0,.01,0,.02,0,.01,0,.02,0,.02,0,.06.1.17.55.25.96,0,.06,0,.12.04.19.04.23.07.41.08.45.04.6-.03,1.2-.03,1.8,0,.05,0,.31-.02.68-.01.04-.01.08,0,.12,0,.21-.02.45-.03.7-.02.08-.02.18-.01.26,0,0,0,0,0,.01,0,.21-.02.42-.03.64-.03.08-.03.15-.01.23-.05.94-.11,1.81-.17,1.96-.09-.07-.19-.14-.26-.22-.25-.3-.54-.53-.9-.71-.35-.18-.65-.47-.94-.75-.34-.33-.67-.67-1-1.01-.24-.26-.47-.52-.66-.73ZM379.54,60.16c-.05.19-.03.38,0,.57.05.32.23,1.32.08,1.66-.15.05-.11,0-.37.25-.17.09-.32.15-.44.23-.28.2-.56.4-.8.66-.12.13-.28.23-.41.35-.34.31-.57.7-.88,1.03-.26.27-.53.53-.86.72-.38.22-.63.58-.91.91-.17.2-.35.38-.51.59-.14.17-.25.37-.45.48-.03.02-.78.87-1.04,1.34-.2.35-.47.66-.73.97-.11.13-.28.19-.28.4,0,.04-.15.08-.24.12-.11-.17-.15-.29-.02-.41.03-.03,1.77-2.98,1.95-3.2.09-.11.62-1.05.68-1.35.05-.2.15-.4.27-.57.18-.23.24-.51.32-.77.11-.33.25-.63.45-.92.07-.11.1-.25.17-.36.1-.15.66-.75.84-.89.12-.1.69-.77.96-1,.13-.11.66-.52.77-.65.04-.05.11-.13.16-.16.22-.22.74-.68.85-.85.09-.15.18-.31.28-.47.2.14.24.31.19.52-.03.15-.03.3-.04.45,0,.12.02.24,0,.35ZM378.77,68.65c-.68,1.13-2.58,4.13-2.69,4.3l-3.37,5.49c-.09.15-.32.1-.35-.07-.07-.38.02-.8.12-1.19.53-2.11,1-4.28,1.94-6.26.44-.94,1.04-1.67,1.72-2.32.91-.87,1.99-1.57,3.07-2.4.46.74,0,1.69-.45,2.44ZM370.99,60.53c.09-.31.56-1.86.61-1.97.23-.54.45-1.07.68-1.61.08-.19.6-1.07.77-1.43.16-.37.71-1.17.74-1.25.11-.33.52-1.21,1.02-1.87.06-.09,2.42-2.89,3.49-3.52.13-.08.26-.16.36-.27.34-.34,1.13-.25,1.15,0,.02.24.14.48.06.7-.04.12-.14.22-.14.35,0,.12.1.22.17.32.18.27.16.62.14.94-.05.82-.01,1.34-.74,1.86-.35.25-.73.45-1.02.76-.09.09-.25.44-.63.58-.37.14-1.16.79-1.33.96-.17.17-.23.41-.3.63,0,0,0,0,0,0-.08.26-.29.46-.54.59-.68.34-3.09,3.06-4.13,4.29-.1.12-.32.22-.37.07-.02-.04,0-.09,0-.13ZM390.74,73.22c-.31,5.48.27,11.04.64,16.51.04.58.08,1.17.12,1.75.03.41.06.82.09,1.22.02.26.03.54-.14.74-.12.13-.3.19-.47.24-1.65.47-3.41.53-5.09.17-.51,0-1.17-.09-1.66-.23-.54-.16-.74-.33-.8-.63,0-.04.02-.09.05-.14.03-.05,0-.13,0-.19-.01-.23-.03-.46-.03-.69,0-.4.02-.8.04-1.19,0-.15.06-.29.1-.44-.02-.09-.07-.21-.06-.32.02-.76.05-1.51.08-2.27.04-1.1.09-2.19.13-3.29,0-.13.05-.26.07-.39.01-.08,0-.17,0-.26-.04-.25-.06-.49.06-.73.06-.12.05-.28.07-.42.03-.2.02-.41.09-.6.06-.2.07-.4.11-.59.07-.23.15-.45.25-.67,1.09-2.32,3.88-3.57,4.7-5.99.61-1.8-.02-3.88.72-5.64-.28.07-.45.34-.61.58-1.1,1.71-2.8,3.02-4.73,3.67-.73-2.53-.16-5.4,1.47-7.46.57-.72,1.28-1.36,1.68-2.2.4-.83.39-1.97-.33-2.55-.76-.61-1.88-.33-2.81-.62.07-1.5.14-3,.21-4.5.04-.82.15-1.77.84-2.21.41-.26,1.54-.8,1.84-.82l1.45-.09c.27-.02,2.22.79,2.8,1.55.16.21.34.2.6.47.31,1.57-.44,3.13-.88,4.66-.51,1.76-.63,3.61-.74,5.44-.04.66-.08,1.32-.12,1.98-.04.58-.07,1.17-.09,1.75-.03,1.47.08,2.95.35,4.4Z"/>
    <path class="cls-3" d="M406.05,41.03c-.6-.94-1.22-1.91-2.13-2.56-.8-.57-1.77-.85-2.72-1.11-.17-.05-.4-.07-.47.09-.03.07-.02.14,0,.22.14.85.03,1.62.17,2.47.03.19.06.4,0,.58-.06.22-.23.38-.39.54-.68.65-1.13,1.35-1.85,1.96-.47.4-1.27.74-1.64,1.28-.08.12.03.29.17.27.79-.1,1.87-.65,2.55-.94.18-.07.36-.15.55-.16.24-.01.48.07.71.16.62.24,1.24.33,1.86.57.6.23,1.22.48,1.69.91.2.19.38.41.63.53.25.12.6.09.73-.15.08-.14.06-.32.04-.48-.06-.67.04-1.35.29-1.98.11-.29.26-.59.3-.9,0-.03,0-.07,0-.1,0-.44-.24-.84-.47-1.21Z"/>
    <path class="cls-3" d="M352.04,33.82c.6,1.65,1.2,3.3,1.8,4.96.11.3.22.62.19.95-.04.41-.31.75-.56,1.07-1.24,1.59-2.45,3.21-3.6,4.87-1.09,1.56-2.16,3.16-2.94,4.9-1.05,2.35-1.57,4.91-2.08,7.44-.29,1.46-.59,2.95-.36,4.42.39,2.5,2.23,4.53,3.02,6.93.35,1.07.5,2.2.59,3.32.25,2.97.14,5.95-.31,8.9-.27,1.73-.65,3.48-1.43,5.05-.48.96-1.11,1.84-1.49,2.84-1.15,3.01.43,6.79,3.38,8.08,1.14-.49,1.68-1.78,2.09-2.96.45-1.32.87-2.64,1.26-3.98,1.13-3.91,1.98-7.89,2.54-11.92.39-2.78.64-5.58.52-8.38-.04-.91-.12-1.83,0-2.73.16-1.25.67-2.43,1.18-3.58l-3.11,5.05c-.21-1.73-.88-3.4-1.92-4.79-1.04-1.39-2.46-2.53-3.13-4.14-.49-1.18-.51-2.5-.52-3.78,0-.91-.02-1.82.14-2.71.33-1.83,1.35-3.44,2.62-4.77.36-.37,3.35-3.14,3.8-3.04.38.08.46.1.69.02.43-.14,2.45-.57,2.87-.52.68.08,1.37-.01,1.78-.57l.13-.18c.37-.5.76-1.03.88-1.64.14-.71-.09-1.43-.39-2.08-1.46-3.21-4.48-5.43-7.64-7Z"/>
  </g>
  <g>
    <g>
      <path class="cls-2" d="M193.77,45.07c-48.09-12.37-67.7-35.42-113.15-35.42C44.82,9.64,5.95,26.66,5.95,26.66v7.17s48.24-5.98,100.03,18.54c11.12,5.27,23.25,8.96,35.65,11.49,5.13-1.7,10.22-3.63,15.2-5.82,12.85-5.65,25.2-9.87,36.94-12.97"/>
      <g class="cls-9">
        <g>
          <rect class="cls-3" x="5.95" y="9.64" width="187.82" height="54.22"/>
          <g class="cls-4">
            <rect class="cls-3" x="-3.73" y="-.04" width="207.18" height="73.58"/>
          </g>
        </g>
      </g>
    </g>
    <g>
      <path class="cls-2" d="M311.88,49.31s-46.67-22.15-116.68-3.41c17.66,4.6,37.73,8.15,65.74,8.15v9.81c14.32-2.92,30.97-4.73,50.94-4.73v-9.81Z"/>
      <g class="cls-7">
        <g>
          <rect class="cls-3" x="-708.54" y="-50.38" width="3717.69" height="9762.8"/>
          <g class="cls-5">
            <rect class="cls-3" x="184.09" y="29.01" width="137.48" height="44.53"/>
          </g>
        </g>
      </g>
    </g>
    <g>
      <path class="cls-2" d="M141.82,65.27c-41.71,13.92-85.52,12.88-85.52,12.88v7.26s39.19,22.98,75.28,22.98c50.52,0,69.38-32.12,129.96-44.53-5.75,1.15-65.4,12.51-119.72,1.41"/>
      <g class="cls-6">
        <g>
          <rect class="cls-3" x="-708.54" y="-50.38" width="3717.69" height="9762.8"/>
          <g class="cls-8">
            <rect class="cls-3" x="46.61" y="54.18" width="224.61" height="63.9"/>
          </g>
        </g>
      </g>
    </g>
  </g>
</svg>